<mxfile host="app.diagrams.net" agent="Mozilla/5.0 (Windows NT 10.0; Win64; x64; rv:129.0) Gecko/20100101 Firefox/129.0" version="24.7.8">
  <diagram name="PÃ¡gina-1" id="DmWfZh2_SxkXKbmXM3PW">
    <mxGraphModel dx="1793" dy="985" grid="0" gridSize="10" guides="1" tooltips="1" connect="1" arrows="1" fold="1" page="1" pageScale="1" pageWidth="1169" pageHeight="827" background="#000000" math="0" shadow="0">
      <root>
        <mxCell id="0" />
        <mxCell id="1" parent="0" />
        <mxCell id="gmuy4ove-xvTm6l9bqea-1" value="" style="shape=image;verticalLabelPosition=bottom;labelBackgroundColor=default;verticalAlign=top;aspect=fixed;imageAspect=0;image=data:image/png,iVBORw0KGgoAAAANSUhEUgAAASIAAACuCAMAAAClZfCTAAAAyVBMVEX///8lLz7/mQD/lwD/lAD/kgAAEin/kQAfKjoAFywOHTAAFSshLDsSIDLb3d6rrrIaJjcADicWIzQIGi7s7e7Jys2cn6SytbkAACK/wcT5+fq5u79YXmj/+vPX2NrQ0dR7f4b/791nbHWHi5FASFTy8/T/9utKUVwsNUT/2bL/z53/4sNxdn7k5eY3QE2Tl5xTWWP/wX3/1Kj/sFT/q0dhZ3Cjpqr/oiX/tF//6tT/qT7/4L8AABz/yZD/163/w4P/pDH/u27/tF7bzUlOAAAUpklEQVR4nO1d2ULqOhQVOkKLdGAQEAFBEQSRQRC8KPr/H3VbpiY7Y1EPRw/r0dI2Wd3Zc+LZ2QlfhVytMh3Ue9dPT0/X9WYhWzovH3tI8dEvTZtP7dZDgFb7sl6ofNUk+sVm23UtP5PxHMc0TcfxMumUfmH3pldf84Y/gVz22ndTGS+YgB0gnEfG1y8SvULtczzlir07N+2ZCQpsJ6Pb9Tz75n42Qqkv87pyrbi7oZi/kRphvxK9pMZ8bratpx3WJJynYk7qXZS3F1oXacemPTl6g2UXGF/h6r90hNR/PfELB66F3tEU35FrXfjRLf8V6D9qumnqR95NwkxftLPxZSkkPsOlZ/eCdIY+skEG+51O/xWCoos/2c0KR9n20BvMB9pEmpaXEML0MwPh2zD0mzqXeJwk/44m4gWcIjsj+k4P4I12QjTMPE6q2SJ/UvLwYbBnkTaZC5VErq5LEI+OzaV8glIK/1Gqwn/ruQsf64rMwTWuXxxyMdddmZWwJelCMMIIFTceQSGsa+IxNxb+E4f8CYYp8bkzU8FIdfz3abgyc610rFlcSKrt2kVsgsLhPREPaoOFk+G/95owOSb5THyk4CNYwGz2HWllsR2hUF9u0KNaRyHShJQDZZTQz7nvJW2nSBkBgwBVUT8TkyGhoO/QivvgHQNwWUDlQqwDfEI6+UiXT+ojPlIgA+VE7ImYl3IU3ckrOBwX0D18wJ/E/0ZFitrgk1oG6wwQ+shcDaF7TZ2kLEUJyt12GHT4fsr3/SAMYXBotsGTmrjat23ea+uUGVFMFII8bjLtO+xqIUU+L2F6vqWv15/t+HrKz+BzOZQiM2O5iad6oVgp5UuV4rR5/eCmPBpNOjCaUJ1yldED7cuYvIEO8C/gYd54n3AhAvfQfWxWrnI3oYNWLuf6tcrgOuH6EU2HUGR7lndZqMFwqVxr3lnkSgff8ezMx6+nOUY8R04pgMuzwkBp6pjndwmF0tTbRVrYl6v0EpZzIEVmxn0YMOPgfIuUZKuE/wYYR54yKvnE0wL4HGcO+F34Mq5Bxr07TsBdq+tpWzBAFFuKPLdV4Ifn2RRcGw74ChUwb539sCbVXfU4oSzw3p06evEJyDjpkuAoTx90z3RFvuoWocfn+H6Tb3BDnBNxro4vDOhg6+yIgu5q2JSoawdAagqV4Bx4sSchHvl6WyK3sEb2Pyt1KRetnMO1Bq30JfBcmF/phrrOgqXLzhoBUi1UI2RxD4JQkp/FlWQ2KxwKmBkMGaZp7uUIeZqJDmWDqUGAfsfVCFCCflF2Qt8AmMBw8cvA9NoOS/mjsQT6SHYWB+g5XLEDx8X79Dw/gZJA2wBXnamMkBXp9BCOzEfWm+tAFaFa8AaPxEXh8DcDfC+ojECkyQylEabTFVSDuYwbAPk4led4vBc3ofjFaPJc3ECv4YOFXgHtZ24fdZsthtyBqBf3SoFbzw/1vh1AzxL+KZCyC/pTkHSancCeyTKCRVwVuZgLBwZ1ZIpuBOljEJ1a9Pwwkk4LTBPqAbD0CP5c8FpAkWym7LtgYmJim8BmlaRGi8hauGQQl4eVHsBVEdA2YKEdWV1DV98CFJWBcaEqI1SxhMoHVXD0tBrwJoClPIdJ7eNW14HxdaHbCSiklorQdFoYx6ExLV2R4O4zzOCC78JNMfwBALPuwtAXxAI6TRkhimUtZqjnTE+r4e4zEe3C5FP60Ir0lwBSANdFDvgoNGWEKJbNdWSK9LQanlgljAAsUZitYy61ooAiEG7S3GVUaDazRe2VTpEAXNnYDrwOszAJp3VEOQKjISkCtSKX/J6o6vHL8KG0tBouuuRaJBMHZvp4oayQIlArSpHKCDFg2xIBauJoaTW8LOmXiB+QxUA71eLkHb8VQoqA50QJmFrRD7ztVcRRoqXV8MUNHY0AV5RUuOm2pYv2XwoxRXgYRyqjG2TCu/wQKgU6kb7CIz+qZ/hEq6KZfqZ5hM46MUV53Nf14TdHr19s6chSaIuAd0hQtQylSBTC9tyHZowmGUmUz0vTZu+p3Wq12pe95iCbP0e+q5iiMl7Ps+CMEc/K3jVRoQqMXJp4BYheSWqymkJsz3J4/YdxUc4322nX33aC2rteUPfuspm9IowPnSKgXIkZI+mhSDUjtBJV3jIewsLLW8CEKGCpV/oSVynfc1OMXlDTS1v6Xb3Yr4j8IsgiMSVEYCLbhNIKl2YNU0WsdEnf4jUn2E5Kf6pIJ+kZmN7pgj4a20nDn9AoAnlSYICwdNp+zaDqBqbVcE+LCHl2yIsapRzfusx+gqWi5x/SIkKt2+NdLkD9IlUSO+rnvEJ0OJQT7HGcAlBJ3MXnpN1L0quSQr/NFdOYFOEWyMOVEZpOi9zkMnILrCO7nKdhyFsS7WROKsHqi+Yhe3FgHxadIjzRDJQRmk5DzDeixEEMhucUuT2juRajhInBzrix85I9ulNxMEUgR4j5gqgDg6oVVOHgaTUs/SIqtBYupPoS04l4y+0xXp+pBEW4g40pIzRTkEb+jiZX8bQa1mbq1QWTyV27MiTZbi/GanuUbOaOQRFuprHAtI5l9iOUkVuwUB6P4tkV7T3Or12ZfQjendQ+lRBPDIYCv9HLhPA802S+ktGJhnW1YfUKVBVhwoLYLSzxClSRzJRyg4RO7avDYLJqdhADi3Z3xvITl/XmoFAoDJr167adtizqDiMGRXhyIhUpIzSdhifpsYIjEmNgi5bfDYmgVncsuhccwdal5Iho70qE3VhtYtdWuV/LNi8d15dwHc9gExrSC4RcAAUmVFrQtBoWWPDa2IipNR9cfiu2nZDRR3fEMxy9zia3XwHJKwZFuAJBlBEiE6CajfZvITfgrrofzznuT1sWb/+PTKtWgfAj0m2+9IHiOqsrFmvGQrJkiHmCmX9EXJAbMHlk9QhwkMs+6VD0I7hC218meqotUXPbuRxFeLZ5X21DpQvWMbCC4w3trwdW68ulnsfwu8X9bLDrLJEStv9JUoSnuPYRPZpOg4l/VF4i246pItmtPyTyvU2TLIQvIh1ubpDospWkCK8V7XUL4kMTGdscLa2GleV43aJC3EzviJZf8dYcYtecLtbwV5IUYWHDfosmmk4j4tEHSloNyz19tuWjmCB9QGq5OALcHiUzBNCFwaToCvvdru8O+Sakn4wWHHe9AFjTjGD7lgSaxP4lXqv3GdEDLGVSQS8Pe9SYR75VRqgIki9D26x2ni9qT5D00sGowLwbbYNtBGjPpLZESOSuN8C+//ZbIek0ytBQf2KbVsO0vuCDy6EI5YisSaFDAqpIaqmDxcmmCGvG2iojJJ1Gmy/yybaGA+sgEKgNScDCLaORbgPYHy4RRROdemyKypi4bbLUiAWlVJ2x0WfI+Qg220oC7mGiDWQPYleLjDZs2bL3YM1Y64Fg6TSKi4P6m5u0GuqV4BtjDgfYl8Xt1wLbEdi1BRRA3XEkD1sk61RYkZrZj4A6IWtHGlMFRM3yQEwle8NDQJvP3TC3Bdy5yOlRwSR6TQmaTqvTbkE6rdZpDyyMER4fIQmwFS4eRRJSBPeR8aImzMEOO6uQdBp9JwuyNtfRE1qAlN1fJ0QNNPXyFlrMjfUhyjCZx/sG2PP9ChZM0LNZWMExh+8k/bLtQcBKcVNQoG2Rr9s3GEAPnuerYPFNsLLQdBo9NEJd8mDoWLBD9OYeCmCluHYc7k8V+0Xkpl9uphS1R8HCQdNpjNuQ5wfko/aEvccoLoCu4KoXqHrFoyC3a3ITLthg3BskncZSYUiOP3C/Ubfh63qp8W0q/I3vhEz4ApPWoxRLeMkBbNVnsojuZR19gRUcbzB1L13SESAfazcETBcJNnL1aNVg7lLGkj1o/zjLUUYF20NrIvxoMw5AH5JAOonzcbgh3RO1aMstj2IvQBhifjqsLIB+QO7Xyz9eCjbQR6jHcwahSeOlz88fGAdB8Tw6omV8dw/TMMBDkPYz4TgkZcsxM+6llPPdBHGpSP+SBop5BMBAZ9VaeP4K3Li/Azu6HtA/BNcqbMrjZiohFKWbS/jNdJGjQ36z9BNFKMpTk133p56Lt8MjnVj2bijG7nRuqmh3j51x2wWetBWIapFYxVXIATkOsMc3pZ6PFg+IaovOkXDywLT1wBgdnWdEE+AOskkdM6MnelkaTeV8PUMq0wtxCopyvpPte/XKeXiiTTl3VWm2QY06BfUddznT26F5upd2aA9lYwyDosSmIdNq9QbF/FU/l7u5yfXP89nmY4pWScvUhQydVSjHda2PQ/I9x8mkLB+2DlhN8hwclyNG1DO2eGkN6nkrsc5+CmE6YS+0nvLTad/SU4wzYU2pgzNYFoSBVJ3SKcFZN3T1ywu3qKf28KNH1ukaQgjObtuiH+vxej28BxZOqFvItqhRxJRHKdzytwFlYwz6DobdFEFc0N+AqJrwnrmxK+fwFp77RTnojV/JoCgjQZBAZVWMC+nsCrUHiwbb3T0TbCHO8JJdlGMj+cuGcg6daPtdTG2xhin0iBA05fplvcS+qewG6yBIcR1UePRsgrsuz6inGfJvCBNTsTnyzFiV3YHE2bV4h2kpYtW0BFkm4gMI3LU+sfLFSZr+g0y/NTqb65iJ8JJw84cPTm+r7z613xI5/U3oR/mCzA+RlLIkuvcKcU6jTjvxtzvePPFE1fZNYlaPa3VkSrTB34Cxm/AMDYgSECNPKg9Snj644i7Z8P2+c1iDSb7F6Oi2Pf2Ocgp7uW05jiUUoRDnd66V2sFyH4RKYHphRcfHpy7asn1XV03TTbP7n9f8eO7DAWfKb1HrZWAbru1k3ESdEcZkL59krWa/lt/hSma+5VqluEMpVmPa+fTJ0Rn/QCCITNwHiYMHuSMrNVtrpz2TyaRD/925/kn/12KL8tW0d+fqftpzwn2Zm39wEW449K6zX5Pc7dcq2el0mi1iO2J/Gsrnpeyg9/QY/qOUcIfvIFs76jEiJ5xwwgknnHDCCSeccMIJJ5xwwgknnHDC70W1cT9avr1/jCeTyfjjfdl9nTeOPaa/B43OcKIamqaqyh6qqmqGMRt2bo89uqOjMfpIagE1SSoCqrTZsnrsQR4RjeXMYNKzp0k1lsce6LHQWQTiw6dnix1H1X9KnqpLRZPjZ73e1ve8Kcp4fuRx/zksFUkB2opRaNzmhpJUjPd/Q393kmoMfgJoofB0tLVEqf+AZqqO5ZfYjqJOeN/2NjX5euwpfDMaIhNGgRpSdPZibO5UtNn9sWfxrUhiDO38xB0UKoEbis7ud+KnGItfrLfvjS0xgfusGWpyNX5+f+uORq8BRqPl8GOlkr6A9rK5ubHnV9HGvzY+qSqGpiZnz2/dzrxB93MaowXQVtpOZm5n+wuK8fxrSZo3xHZ7ji9HLSJjokWLVPu9JEmginFkIOI2NJInktYYoa6Tgl7pGgh7ivEPOdwADQ3hYYJdusfUuWJMfrcLwAa6nt7xS7czzDsP/KTOccZ4ZCBSpI7gxbGWxElKdo8xxiMDkSKNVDeYQgpJUrXhv6a5q+hCo/hP94QbrmrjX62U5q8dnAdEXSsL2h3VhQY4Wq+3X5p1u10qmqoZb+jf7iMCWOmPpUHEc0FY8/4LnYD7Z3VjxbEcdTcyWhpr/dwnKTGvYsx+lyhVu8l9PKaoyIX3aPYq++4xsdg2ovT8a7TSXoA2MJDgDYlXPzhPGNHTc4FWWv4CA9d4S4L5IeJyG4mHxvULGyuaIK29gNXoRy+46mhFpIXUYXT9BdHWgokuWXleRTUmrz+UpWpnbJAVEBW17cNonY1Fj2vMmNWCwFKOOz+OperLs0r57oqBBWKRreKvsw2YgrRZcePXH1RZqnY+aPyEE8GYaES+tcJ6FvZ7hkbaPVxddH+E9r4djen8BKKywL9zlC1ShoynAXT5ladAL83e/nJPYL5cUfTPdvwajNMn0TqT/fq3ovJcsOKUj791yVVf3pOcFgdtAWmoRkI0oT6RihdhkVdZC9PL36a/58uFpnHKi4pKpnpe93NlBh9U8NQ2Ikzqann/t9A0744VfoeMoo0poj/exySzeC+8/SBDWzpN2uLt/tiLTkxPMqzPv1Bure7Nk0a7zH/tSrJjIKQp+f56JEN3+/K2UNntedEotTfq/ft1FleINncnpRtzQt2kTN46f5Sn6rz7PDOk2s8Ug7bGQuztmXGYmV4qMZpzwn5KTV28debfr55u77uB4ZIQns3ItBVr/vsQNo45w1Adxu3PCVsM1NXHssMoon8Wt/PRcJI0ZNlZjyjJjiv22TTj8AVQfY/dxLQVKC05Hnbvv4yp6vxl+b5S16ITZ0Sqwqvp7FJFKl1TSeL2Xcq40YhaL73k4nnZfZnfHshVY97pvo0XyU07edwhqBRPCMF8u86U5GGD2+P2XY3ZMAiZCoXKUGeT9+Hy9eV+3qhW2U27waXG/P6lsxy+T5Jhp/1abg75SoqqCJoVdylZ4/N5+tshM+iJR9aGLW39tNlqsZhMxuOPj+fnj4/xeDJZrGazULuGUA8lZv82TRHm3rfPZzgEMVFdwtTmJ6Ew8TWP12ZE6ZnApjGWUTw7BKMvJukboRgLGV95sZ6PQqvAHor7+D26R0BgJORqgNsqLKWM/xk0huoXKKXvRFhJlowZ39ZG6EC3mofR4kAn4A9AidWPsFZ7xrf0C83fWUnP4yIs+sVIOoTKWvkehtaPH8vuXvpTCGx8zC6EoRrc9J055tsuWcA7GsIaVux0T8cwZt+dmtjsFDw2PaGreViNr/FHcjcBS0eVJSWQn4+/vgba6E4MXk79G/lRjeT7X5M856PaeeZVZr6FnkB8Fsuf1SU27060P0RTQI8xG/51JSoZVO+XC8r2pa+lJ3jBDz91oHrfHStGzMygJDthhm7y9vKT6dmj0XlbKNLZdylyAn9+NRz9iJYLaVQbneVzmIf/jERtcnBGcvz2XeWC46M6D4haJVUtJlXKtkKw+liO/kDR6S9Adf7SDVPRxjoVraLnvmBQN1luQ5k9D7udg0sCPxph5v61u1yGhwctVqvZDqvVYjJ+Hi67o47MZs0Tjoz/AbKyvFq9FkkvAAAAAElFTkSuQmCC;movable=0;resizable=0;rotatable=0;deletable=0;editable=0;locked=1;connectable=0;" parent="1" vertex="1">
          <mxGeometry x="5" y="8" width="135" height="81" as="geometry" />
        </mxCell>
        <mxCell id="gmuy4ove-xvTm6l9bqea-4" value="&lt;font size=&quot;1&quot; color=&quot;#ffffff&quot;&gt;&lt;b style=&quot;font-size: 14px;&quot;&gt;VNET_PARIS&lt;/b&gt;&lt;/font&gt;" style="points=[[0,0],[0.25,0],[0.5,0],[0.75,0],[1,0],[1,0.25],[1,0.5],[1,0.75],[1,1],[0.75,1],[0.5,1],[0.25,1],[0,1],[0,0.75],[0,0.5],[0,0.25]];outlineConnect=0;gradientColor=none;html=1;whiteSpace=wrap;fontSize=12;fontStyle=0;container=1;pointerEvents=0;collapsible=0;recursiveResize=0;shape=mxgraph.aws4.group;grIcon=mxgraph.aws4.group_vpc2;strokeColor=#99FF14;fillColor=none;verticalAlign=top;align=left;spacingLeft=30;fontColor=#AAB7B8;dashed=0;" parent="1" vertex="1">
          <mxGeometry x="140" y="130" width="929" height="478" as="geometry" />
        </mxCell>
        <mxCell id="gmuy4ove-xvTm6l9bqea-11" value="&lt;font size=&quot;1&quot; color=&quot;#ffffff&quot;&gt;&lt;b style=&quot;font-size: 14px;&quot;&gt;SUBNET_PRIVATE_PARIS&lt;/b&gt;&lt;/font&gt;" style="points=[[0,0],[0.25,0],[0.5,0],[0.75,0],[1,0],[1,0.25],[1,0.5],[1,0.75],[1,1],[0.75,1],[0.5,1],[0.25,1],[0,1],[0,0.75],[0,0.5],[0,0.25]];outlineConnect=0;gradientColor=none;html=1;whiteSpace=wrap;fontSize=12;fontStyle=0;container=1;pointerEvents=0;collapsible=0;recursiveResize=0;shape=mxgraph.aws4.group;grIcon=mxgraph.aws4.group_vpc2;strokeColor=#99FF14;fillColor=none;verticalAlign=top;align=left;spacingLeft=30;fontColor=#AAB7B8;dashed=0;" parent="gmuy4ove-xvTm6l9bqea-4" vertex="1">
          <mxGeometry x="439" y="42" width="456" height="381" as="geometry" />
        </mxCell>
        <mxCell id="gmuy4ove-xvTm6l9bqea-3" value="&lt;div&gt;&lt;font color=&quot;#ffffff&quot;&gt;&lt;b&gt;apache-server-00&lt;/b&gt;&lt;/font&gt;&lt;/div&gt;&lt;div&gt;&lt;font color=&quot;#ffffff&quot;&gt;&lt;b&gt;&lt;br&gt;&lt;/b&gt;&lt;/font&gt;&lt;/div&gt;" style="sketch=0;points=[[0,0,0],[0.25,0,0],[0.5,0,0],[0.75,0,0],[1,0,0],[0,1,0],[0.25,1,0],[0.5,1,0],[0.75,1,0],[1,1,0],[0,0.25,0],[0,0.5,0],[0,0.75,0],[1,0.25,0],[1,0.5,0],[1,0.75,0]];outlineConnect=0;fontColor=#232F3E;fillColor=#ED7100;strokeColor=#ffffff;dashed=0;verticalLabelPosition=bottom;verticalAlign=top;align=center;html=1;fontSize=12;fontStyle=0;aspect=fixed;shape=mxgraph.aws4.resourceIcon;resIcon=mxgraph.aws4.ec2;" parent="gmuy4ove-xvTm6l9bqea-11" vertex="1">
          <mxGeometry x="349" y="217" width="78" height="78" as="geometry" />
        </mxCell>
        <mxCell id="gmuy4ove-xvTm6l9bqea-2" value="&lt;div&gt;&lt;font color=&quot;#ffffff&quot;&gt;&lt;b&gt;apache-server-01&lt;/b&gt;&lt;/font&gt;&lt;/div&gt;" style="sketch=0;points=[[0,0,0],[0.25,0,0],[0.5,0,0],[0.75,0,0],[1,0,0],[0,1,0],[0.25,1,0],[0.5,1,0],[0.75,1,0],[1,1,0],[0,0.25,0],[0,0.5,0],[0,0.75,0],[1,0.25,0],[1,0.5,0],[1,0.75,0]];outlineConnect=0;fontColor=#232F3E;fillColor=#ED7100;strokeColor=#ffffff;dashed=0;verticalLabelPosition=bottom;verticalAlign=top;align=center;html=1;fontSize=12;fontStyle=0;aspect=fixed;shape=mxgraph.aws4.resourceIcon;resIcon=mxgraph.aws4.ec2;" parent="gmuy4ove-xvTm6l9bqea-11" vertex="1">
          <mxGeometry x="349" y="72" width="78" height="78" as="geometry" />
        </mxCell>
        <mxCell id="gmuy4ove-xvTm6l9bqea-14" value="&lt;font size=&quot;1&quot; color=&quot;#ffffff&quot;&gt;&lt;b style=&quot;font-size: 14px;&quot;&gt;LB_01&lt;/b&gt;&lt;/font&gt;" style="outlineConnect=0;dashed=0;verticalLabelPosition=bottom;verticalAlign=top;align=center;html=1;shape=mxgraph.aws3.classic_load_balancer;fillColor=#F58536;gradientColor=none;" parent="gmuy4ove-xvTm6l9bqea-11" vertex="1">
          <mxGeometry x="163" y="150.5" width="69" height="72" as="geometry" />
        </mxCell>
        <mxCell id="gmuy4ove-xvTm6l9bqea-15" style="edgeStyle=orthogonalEdgeStyle;rounded=0;orthogonalLoop=1;jettySize=auto;html=1;entryX=0;entryY=0.5;entryDx=0;entryDy=0;entryPerimeter=0;" parent="gmuy4ove-xvTm6l9bqea-11" source="gmuy4ove-xvTm6l9bqea-14" target="gmuy4ove-xvTm6l9bqea-2" edge="1">
          <mxGeometry relative="1" as="geometry" />
        </mxCell>
        <mxCell id="gmuy4ove-xvTm6l9bqea-16" style="edgeStyle=orthogonalEdgeStyle;rounded=0;orthogonalLoop=1;jettySize=auto;html=1;exitX=1;exitY=0.5;exitDx=0;exitDy=0;exitPerimeter=0;entryX=0;entryY=0.5;entryDx=0;entryDy=0;entryPerimeter=0;strokeWidth=5;strokeColor=#FFFFFF;" parent="gmuy4ove-xvTm6l9bqea-11" source="gmuy4ove-xvTm6l9bqea-14" target="gmuy4ove-xvTm6l9bqea-2" edge="1">
          <mxGeometry relative="1" as="geometry" />
        </mxCell>
        <mxCell id="gmuy4ove-xvTm6l9bqea-17" style="edgeStyle=orthogonalEdgeStyle;rounded=0;orthogonalLoop=1;jettySize=auto;html=1;entryX=0;entryY=0.5;entryDx=0;entryDy=0;entryPerimeter=0;strokeColor=#FFFFFF;strokeWidth=5;" parent="gmuy4ove-xvTm6l9bqea-11" source="gmuy4ove-xvTm6l9bqea-14" target="gmuy4ove-xvTm6l9bqea-3" edge="1">
          <mxGeometry relative="1" as="geometry" />
        </mxCell>
        <mxCell id="gmuy4ove-xvTm6l9bqea-27" value="&lt;font size=&quot;1&quot; color=&quot;#ffffff&quot;&gt;&lt;b style=&quot;font-size: 14px;&quot;&gt;SUBNET_PUBLIC_PARIS&lt;/b&gt;&lt;/font&gt;" style="points=[[0,0],[0.25,0],[0.5,0],[0.75,0],[1,0],[1,0.25],[1,0.5],[1,0.75],[1,1],[0.75,1],[0.5,1],[0.25,1],[0,1],[0,0.75],[0,0.5],[0,0.25]];outlineConnect=0;gradientColor=none;html=1;whiteSpace=wrap;fontSize=12;fontStyle=0;container=1;pointerEvents=0;collapsible=0;recursiveResize=0;shape=mxgraph.aws4.group;grIcon=mxgraph.aws4.group_vpc2;strokeColor=#99FF14;fillColor=none;verticalAlign=top;align=left;spacingLeft=30;fontColor=#AAB7B8;dashed=0;" parent="gmuy4ove-xvTm6l9bqea-4" vertex="1">
          <mxGeometry x="20" y="42" width="407" height="381" as="geometry" />
        </mxCell>
        <mxCell id="gmuy4ove-xvTm6l9bqea-34" value="&lt;div&gt;&lt;font size=&quot;1&quot; color=&quot;#ffffff&quot;&gt;&lt;b style=&quot;font-size: 14px;&quot;&gt;EXT_GTW&lt;/b&gt;&lt;/font&gt;&lt;/div&gt;&lt;div&gt;&lt;font size=&quot;1&quot; color=&quot;#ffffff&quot;&gt;&lt;b style=&quot;font-size: 14px;&quot;&gt;&lt;br&gt;&lt;/b&gt;&lt;/font&gt;&lt;/div&gt;" style="outlineConnect=0;dashed=0;verticalLabelPosition=bottom;verticalAlign=top;align=center;html=1;shape=mxgraph.aws3.internet_gateway;fillColor=#F58534;gradientColor=none;" parent="gmuy4ove-xvTm6l9bqea-27" vertex="1">
          <mxGeometry x="189" y="150.5" width="69" height="72" as="geometry" />
        </mxCell>
        <mxCell id="gmuy4ove-xvTm6l9bqea-36" value="&lt;b&gt;&lt;font style=&quot;font-size: 14px;&quot; color=&quot;#ffffff&quot;&gt;PUBLIC_IP&lt;/font&gt;&lt;/b&gt;" style="sketch=0;outlineConnect=0;fontColor=#232F3E;gradientColor=none;fillColor=#ED7100;strokeColor=none;dashed=0;verticalLabelPosition=bottom;verticalAlign=top;align=center;html=1;fontSize=12;fontStyle=0;aspect=fixed;pointerEvents=1;shape=mxgraph.aws4.elastic_ip_address;" parent="gmuy4ove-xvTm6l9bqea-27" vertex="1">
          <mxGeometry x="187.5" y="261" width="71.99" height="30" as="geometry" />
        </mxCell>
        <mxCell id="gmuy4ove-xvTm6l9bqea-35" style="edgeStyle=orthogonalEdgeStyle;rounded=0;orthogonalLoop=1;jettySize=auto;html=1;entryX=0;entryY=0.5;entryDx=0;entryDy=0;entryPerimeter=0;strokeColor=#FFFFFF;" parent="gmuy4ove-xvTm6l9bqea-4" source="gmuy4ove-xvTm6l9bqea-34" target="gmuy4ove-xvTm6l9bqea-14" edge="1">
          <mxGeometry relative="1" as="geometry" />
        </mxCell>
      </root>
    </mxGraphModel>
  </diagram>
</mxfile>
